<?xml version="1.0" encoding="UTF-8" standalone="no"?>
<svg
   height="128"
   viewBox="0 0 128 128"
   width="128"
   version="1.1"
   id="svg101"
   sodipodi:docname="org.gnome.gitlab.cheywood.Iotas.new-test.svg"
   inkscape:version="1.2.2 (b0a8486541, 2022-12-01)"
   xmlns:inkscape="http://www.inkscape.org/namespaces/inkscape"
   xmlns:sodipodi="http://sodipodi.sourceforge.net/DTD/sodipodi-0.dtd"
   xmlns:xlink="http://www.w3.org/1999/xlink"
   xmlns="http://www.w3.org/2000/svg"
   xmlns:svg="http://www.w3.org/2000/svg">
  <sodipodi:namedview
     id="namedview103"
     pagecolor="#ffffff"
     bordercolor="#000000"
     borderopacity="0.25"
     inkscape:showpageshadow="2"
     inkscape:pageopacity="0.0"
     inkscape:pagecheckerboard="0"
     inkscape:deskcolor="#d1d1d1"
     showgrid="false"
     inkscape:zoom="8"
     inkscape:cx="24.5"
     inkscape:cy="117.0625"
     inkscape:window-width="1680"
     inkscape:window-height="977"
     inkscape:window-x="0"
     inkscape:window-y="0"
     inkscape:window-maximized="1"
     inkscape:current-layer="svg101" />
  <defs
     id="defs73">
    <linearGradient
       id="a"
       gradientUnits="userSpaceOnUse"
       x1="92.999458"
       x2="100.99946"
       y1="71.000198"
       y2="71.000198">
      <stop
         offset="0"
         stop-color="#deddda"
         id="stop2" />
      <stop
         offset="0.52"
         stop-color="#ffffff"
         id="stop4" />
      <stop
         offset="1"
         stop-color="#bdbdbd"
         id="stop6" />
    </linearGradient>
    <filter
       id="b"
       height="1"
       width="1"
       x="0"
       y="0">
      <feColorMatrix
         in="SourceGraphic"
         type="matrix"
         values="0 0 0 0 1 0 0 0 0 1 0 0 0 0 1 0 0 0 1 0"
         id="feColorMatrix9" />
    </filter>
    <mask
       id="c">
      <g
         filter="url(#b)"
         id="g14">
        <rect
           fill-opacity="0.1"
           height="128"
           width="128"
           id="rect12"
           x="0"
           y="0" />
      </g>
    </mask>
    <mask
       id="d">
      <g
         filter="url(#b)"
         id="g19">
        <rect
           fill-opacity="0.1"
           height="128"
           width="128"
           id="rect17"
           x="0"
           y="0" />
      </g>
    </mask>
    <clipPath
       id="e">
      <rect
         height="152"
         width="192"
         id="rect22"
         x="0"
         y="0" />
    </clipPath>
    <g
       id="f"
       clip-path="url(#e)">
      <path
         d="m 34,50 v 68 h 70 c 4.43359,0 8,-3.56641 8,-8 V 58 c 0,-4.433594 -3.56641,-8 -8,-8 z m 0,0"
         id="path25" />
    </g>
    <clipPath
       id="g">
      <rect
         height="128"
         width="128"
         id="rect28"
         x="0"
         y="0" />
    </clipPath>
    <clipPath
       id="h">
      <rect
         height="128"
         width="128"
         id="rect31"
         x="0"
         y="0" />
    </clipPath>
    <mask
       id="i">
      <g
         clip-path="url(#h)"
         filter="url(#b)"
         id="g54">
        <g
           clip-path="url(#g)"
           id="g52">
          <path
             d="m 24,32 v 78 h 72 c 4.43359,0 8,-3.56641 8,-8 V 40 c 0,-4.433594 -3.56641,-8 -8,-8 z m 0,0"
             fill="#c64600"
             id="path34" />
          <path
             d="m 26,108 h 70 c 6,0 6,-6 6,-6 V 82.050781 L 26,82 Z m 0,0"
             fill="url(#a)"
             id="path36" />
          <use
             mask="url(#d)"
             transform="translate(-8,-16)"
             xlink:href="#f"
             id="use38" />
          <path
             d="m 24,32 v 68 h 72 c 4.43359,0 8,-3.566406 8,-8 V 40 c 0,-4.433594 -3.56641,-8 -8,-8 z m 0,0"
             fill="#c64600"
             id="path40" />
          <path
             d="m 24,8 v 90 h 72 c 4.43359,0 8,-3.566406 8,-8 V 16 c 0,-4.433594 -3.56641,-8 -8,-8 z m 0,0"
             fill="#ff7800"
             id="path42" />
          <path
             d="m 80,8 h 8 v 90 h -8 z m 0,0"
             fill="#ed333b"
             id="path44" />
          <path
             d="m 80,98 h 8 v 12 h -8 z m 0,0"
             fill="#a51d2d"
             id="path46" />
          <path
             d="m 36,104 h 16 v 20 l -8,-8 -8,8 z m 0,0"
             fill="#3584e4"
             id="path48" />
          <path
             d="m 36,102 h 16 v 6 H 36 Z m 0,0"
             fill="#62a0ea"
             id="path50" />
        </g>
      </g>
    </mask>
    <mask
       id="j">
      <g
         filter="url(#b)"
         id="g59">
        <rect
           fill-opacity="0.8"
           height="128"
           width="128"
           id="rect57"
           x="0"
           y="0" />
      </g>
    </mask>
    <linearGradient
       id="k"
       gradientTransform="matrix(0,0.37,-0.98462,0,295.38501,-30.360001)"
       gradientUnits="userSpaceOnUse"
       x1="300"
       x2="428"
       y1="235"
       y2="235">
      <stop
         offset="0"
         stop-color="#f9f06b"
         id="stop62" />
      <stop
         offset="1"
         stop-color="#f5c211"
         id="stop64" />
    </linearGradient>
    <clipPath
       id="l">
      <rect
         height="128"
         width="128"
         id="rect67"
         x="0"
         y="0" />
    </clipPath>
    <clipPath
       id="m">
      <rect
         height="128"
         width="128"
         id="rect70"
         x="0"
         y="0" />
    </clipPath>
    <linearGradient
       inkscape:collect="always"
       xlink:href="#a"
       id="linearGradient331"
       gradientUnits="userSpaceOnUse"
       x1="92.999458"
       y1="71.000198"
       x2="100.99946"
       y2="71.000198" />
  </defs>
  <path
     d="m 24,32 v 78 h 72 c 4.43359,0 8,-3.56641 8,-8 V 40 c 0,-4.433594 -3.56641,-8 -8,-8 z m 0,0"
     fill="#c64600"
     id="path75" />
  <path
     d="m 26,108 h 70 c 6,0 6,-6 6,-6 V 82.050781 L 26,82 Z m 0,0"
     fill="url(#a)"
     id="path77"
     style="fill:url(#linearGradient331)" />
  <use
     mask="url(#c)"
     transform="translate(-8,-16)"
     xlink:href="#f"
     id="use79" />
  <path
     d="m 24,32 v 68 h 72 c 4.43359,0 8,-3.566406 8,-8 V 40 c 0,-4.433594 -3.56641,-8 -8,-8 z m 0,0"
     fill="#c64600"
     id="path81" />
  <path
     d="m 24,8 v 90 h 72 c 4.43359,0 8,-3.566406 8,-8 V 16 c 0,-4.433594 -3.56641,-8 -8,-8 z m 0,0"
     fill="#ff7800"
     id="path83" />
  <path
     d="m 80,8 h 8 v 90 h -8 z m 0,0"
     fill="#ed333b"
     id="path85" />
  <path
     d="m 80,98 h 8 v 12 h -8 z m 0,0"
     fill="#a51d2d"
     id="path87" />
  <path
     d="m 36,104 h 16 v 20 l -8,-8 -8,8 z m 0,0"
     fill="#1c71d8"
     id="path89" />
  <path
     d="m 36,102 h 16 v 6 H 36 Z m 0,0"
     fill="#3584e4"
     id="path91" />
</svg>
